<mxfile host="app.diagrams.net" agent="Mozilla/5.0 (Windows NT 10.0; Win64; x64) AppleWebKit/537.36 (KHTML, like Gecko) Chrome/134.0.0.0 Safari/537.36" version="26.2.4">
  <diagram name="Página-1" id="FDdJMZWxVl2FrS_MhE3q">
    <mxGraphModel dx="2867" dy="1061" grid="1" gridSize="10" guides="1" tooltips="1" connect="1" arrows="1" fold="1" page="1" pageScale="1" pageWidth="827" pageHeight="1169" math="0" shadow="0">
      <root>
        <mxCell id="0" />
        <mxCell id="1" parent="0" />
        <mxCell id="h5IUxsHttguIux_c7eIH-1" value="Cliente" style="whiteSpace=wrap;html=1;align=center;" vertex="1" parent="1">
          <mxGeometry x="-470" y="210" width="100" height="40" as="geometry" />
        </mxCell>
        <mxCell id="h5IUxsHttguIux_c7eIH-2" value="Pedido" style="whiteSpace=wrap;html=1;align=center;" vertex="1" parent="1">
          <mxGeometry x="-46" y="210" width="100" height="40" as="geometry" />
        </mxCell>
        <mxCell id="h5IUxsHttguIux_c7eIH-3" value="Fornecedor" style="whiteSpace=wrap;html=1;align=center;" vertex="1" parent="1">
          <mxGeometry x="-46" y="1000" width="100" height="40" as="geometry" />
        </mxCell>
        <mxCell id="h5IUxsHttguIux_c7eIH-4" value="Produto" style="whiteSpace=wrap;html=1;align=center;" vertex="1" parent="1">
          <mxGeometry x="-46" y="500" width="96" height="40" as="geometry" />
        </mxCell>
        <mxCell id="h5IUxsHttguIux_c7eIH-7" value="Estoque" style="whiteSpace=wrap;html=1;align=center;" vertex="1" parent="1">
          <mxGeometry x="510" y="500" width="100" height="40" as="geometry" />
        </mxCell>
        <mxCell id="h5IUxsHttguIux_c7eIH-11" value="Razão socail" style="ellipse;whiteSpace=wrap;html=1;align=center;" vertex="1" parent="1">
          <mxGeometry x="-210" y="1000" width="90" height="30" as="geometry" />
        </mxCell>
        <mxCell id="h5IUxsHttguIux_c7eIH-13" value="" style="endArrow=none;html=1;rounded=0;exitX=1;exitY=0.5;exitDx=0;exitDy=0;entryX=0;entryY=0.5;entryDx=0;entryDy=0;" edge="1" parent="1" source="h5IUxsHttguIux_c7eIH-11" target="h5IUxsHttguIux_c7eIH-3">
          <mxGeometry relative="1" as="geometry">
            <mxPoint x="-90" y="810" as="sourcePoint" />
            <mxPoint x="70" y="810" as="targetPoint" />
          </mxGeometry>
        </mxCell>
        <mxCell id="h5IUxsHttguIux_c7eIH-17" value="" style="endArrow=none;html=1;rounded=0;exitX=0.96;exitY=0.325;exitDx=0;exitDy=0;entryX=0;entryY=0.75;entryDx=0;entryDy=0;exitPerimeter=0;" edge="1" parent="1" source="h5IUxsHttguIux_c7eIH-20" target="h5IUxsHttguIux_c7eIH-3">
          <mxGeometry relative="1" as="geometry">
            <mxPoint x="-120" y="1065" as="sourcePoint" />
            <mxPoint x="70" y="810" as="targetPoint" />
          </mxGeometry>
        </mxCell>
        <mxCell id="h5IUxsHttguIux_c7eIH-20" value="CNPJ" style="ellipse;whiteSpace=wrap;html=1;align=center;fontStyle=4;strokeColor=default;verticalAlign=middle;fontFamily=Helvetica;fontSize=12;fontColor=default;fillColor=default;" vertex="1" parent="1">
          <mxGeometry x="-210" y="1060" width="100" height="40" as="geometry" />
        </mxCell>
        <mxCell id="h5IUxsHttguIux_c7eIH-22" value="Associative&#xa;Entity" style="shape=associativeEntity;whiteSpace=wrap;html=1;align=center;strokeColor=default;verticalAlign=middle;fontFamily=Helvetica;fontSize=12;fontColor=default;fillColor=default;" vertex="1" parent="1">
          <mxGeometry x="200" y="490" width="140" height="60" as="geometry" />
        </mxCell>
        <mxCell id="h5IUxsHttguIux_c7eIH-24" value="quantidade" style="ellipse;whiteSpace=wrap;html=1;align=center;dashed=1;strokeColor=default;verticalAlign=middle;fontFamily=Helvetica;fontSize=12;fontColor=default;fillColor=default;" vertex="1" parent="1">
          <mxGeometry x="225" y="570" width="90" height="20" as="geometry" />
        </mxCell>
        <mxCell id="h5IUxsHttguIux_c7eIH-25" value="" style="endArrow=none;html=1;rounded=0;fontFamily=Helvetica;fontSize=12;fontColor=default;entryX=0.5;entryY=0;entryDx=0;entryDy=0;" edge="1" parent="1" target="h5IUxsHttguIux_c7eIH-24">
          <mxGeometry relative="1" as="geometry">
            <mxPoint x="270" y="550" as="sourcePoint" />
            <mxPoint x="270" y="570" as="targetPoint" />
          </mxGeometry>
        </mxCell>
        <mxCell id="h5IUxsHttguIux_c7eIH-26" value="Id_estoque" style="ellipse;whiteSpace=wrap;html=1;align=center;fontStyle=4;strokeColor=default;verticalAlign=middle;fontFamily=Helvetica;fontSize=12;fontColor=default;fillColor=default;" vertex="1" parent="1">
          <mxGeometry x="520" y="580" width="100" height="40" as="geometry" />
        </mxCell>
        <mxCell id="h5IUxsHttguIux_c7eIH-27" value="faz" style="shape=rhombus;perimeter=rhombusPerimeter;whiteSpace=wrap;html=1;align=center;" vertex="1" parent="1">
          <mxGeometry x="-270" y="200" width="120" height="60" as="geometry" />
        </mxCell>
        <mxCell id="h5IUxsHttguIux_c7eIH-30" value="nome" style="ellipse;whiteSpace=wrap;html=1;align=center;strokeColor=default;verticalAlign=middle;fontFamily=Helvetica;fontSize=12;fontColor=default;fillColor=default;" vertex="1" parent="1">
          <mxGeometry x="-640" y="240" width="100" height="40" as="geometry" />
        </mxCell>
        <mxCell id="h5IUxsHttguIux_c7eIH-32" value="endereço&lt;span style=&quot;color: rgba(0, 0, 0, 0); font-family: monospace; font-size: 0px; text-align: start; text-wrap-mode: nowrap;&quot;&gt;%3CmxGraphModel%3E%3Croot%3E%3CmxCell%20id%3D%220%22%2F%3E%3CmxCell%20id%3D%221%22%20parent%3D%220%22%2F%3E%3CmxCell%20id%3D%222%22%20value%3D%22nome%22%20style%3D%22ellipse%3BwhiteSpace%3Dwrap%3Bhtml%3D1%3Balign%3Dcenter%3BstrokeColor%3Ddefault%3BverticalAlign%3Dmiddle%3BfontFamily%3DHelvetica%3BfontSize%3D12%3BfontColor%3Ddefault%3BfillColor%3Ddefault%3B%22%20vertex%3D%221%22%20parent%3D%221%22%3E%3CmxGeometry%20x%3D%22-600%22%20y%3D%22280%22%20width%3D%22100%22%20height%3D%2240%22%20as%3D%22geometry%22%2F%3E%3C%2FmxCell%3E%3C%2Froot%3E%3C%2FmxGraphModel%3E&lt;/span&gt;" style="ellipse;whiteSpace=wrap;html=1;align=center;strokeColor=default;verticalAlign=middle;fontFamily=Helvetica;fontSize=12;fontColor=default;fillColor=default;" vertex="1" parent="1">
          <mxGeometry x="-590" y="300" width="100" height="40" as="geometry" />
        </mxCell>
        <mxCell id="h5IUxsHttguIux_c7eIH-33" value="pagamento???" style="ellipse;whiteSpace=wrap;html=1;align=center;strokeColor=default;verticalAlign=middle;fontFamily=Helvetica;fontSize=12;fontColor=default;fillColor=default;" vertex="1" parent="1">
          <mxGeometry x="-470" y="310" width="100" height="40" as="geometry" />
        </mxCell>
        <mxCell id="h5IUxsHttguIux_c7eIH-34" value="" style="endArrow=none;html=1;rounded=0;fontFamily=Helvetica;fontSize=12;fontColor=default;exitX=1;exitY=1;exitDx=0;exitDy=0;entryX=0;entryY=0;entryDx=0;entryDy=0;" edge="1" parent="1" source="h5IUxsHttguIux_c7eIH-42" target="h5IUxsHttguIux_c7eIH-1">
          <mxGeometry relative="1" as="geometry">
            <mxPoint x="-500" y="190" as="sourcePoint" />
            <mxPoint x="160" y="490" as="targetPoint" />
          </mxGeometry>
        </mxCell>
        <mxCell id="h5IUxsHttguIux_c7eIH-35" value="" style="endArrow=none;html=1;rounded=0;fontFamily=Helvetica;fontSize=12;fontColor=default;exitX=1;exitY=0.5;exitDx=0;exitDy=0;entryX=0;entryY=0.5;entryDx=0;entryDy=0;" edge="1" parent="1" source="h5IUxsHttguIux_c7eIH-30" target="h5IUxsHttguIux_c7eIH-1">
          <mxGeometry relative="1" as="geometry">
            <mxPoint y="490" as="sourcePoint" />
            <mxPoint x="160" y="490" as="targetPoint" />
          </mxGeometry>
        </mxCell>
        <mxCell id="h5IUxsHttguIux_c7eIH-36" value="" style="endArrow=none;html=1;rounded=0;fontFamily=Helvetica;fontSize=12;fontColor=default;exitX=0.7;exitY=0;exitDx=0;exitDy=0;entryX=0.167;entryY=1.025;entryDx=0;entryDy=0;entryPerimeter=0;exitPerimeter=0;" edge="1" parent="1" source="h5IUxsHttguIux_c7eIH-32" target="h5IUxsHttguIux_c7eIH-1">
          <mxGeometry relative="1" as="geometry">
            <mxPoint y="490" as="sourcePoint" />
            <mxPoint x="160" y="490" as="targetPoint" />
          </mxGeometry>
        </mxCell>
        <mxCell id="h5IUxsHttguIux_c7eIH-37" value="" style="endArrow=none;html=1;rounded=0;fontFamily=Helvetica;fontSize=12;fontColor=default;exitX=0.5;exitY=0;exitDx=0;exitDy=0;entryX=0.405;entryY=1.056;entryDx=0;entryDy=0;entryPerimeter=0;" edge="1" parent="1" source="h5IUxsHttguIux_c7eIH-33" target="h5IUxsHttguIux_c7eIH-1">
          <mxGeometry relative="1" as="geometry">
            <mxPoint y="490" as="sourcePoint" />
            <mxPoint x="160" y="490" as="targetPoint" />
          </mxGeometry>
        </mxCell>
        <mxCell id="h5IUxsHttguIux_c7eIH-38" value="frete" style="ellipse;whiteSpace=wrap;html=1;align=center;dashed=1;strokeColor=default;verticalAlign=middle;fontFamily=Helvetica;fontSize=12;fontColor=default;fillColor=default;" vertex="1" parent="1">
          <mxGeometry x="-260" y="290" width="100" height="40" as="geometry" />
        </mxCell>
        <mxCell id="h5IUxsHttguIux_c7eIH-39" value="" style="endArrow=none;html=1;rounded=0;fontFamily=Helvetica;fontSize=12;fontColor=default;entryX=0.5;entryY=1;entryDx=0;entryDy=0;exitX=0.5;exitY=0;exitDx=0;exitDy=0;" edge="1" parent="1" source="h5IUxsHttguIux_c7eIH-38" target="h5IUxsHttguIux_c7eIH-27">
          <mxGeometry relative="1" as="geometry">
            <mxPoint y="490" as="sourcePoint" />
            <mxPoint x="160" y="490" as="targetPoint" />
          </mxGeometry>
        </mxCell>
        <mxCell id="h5IUxsHttguIux_c7eIH-41" value="status" style="ellipse;whiteSpace=wrap;html=1;align=center;strokeColor=default;verticalAlign=middle;fontFamily=Helvetica;fontSize=12;fontColor=default;fillColor=default;" vertex="1" parent="1">
          <mxGeometry x="30" y="130" width="100" height="40" as="geometry" />
        </mxCell>
        <mxCell id="h5IUxsHttguIux_c7eIH-42" value="Id cliente" style="ellipse;whiteSpace=wrap;html=1;align=center;fontStyle=4;strokeColor=default;verticalAlign=middle;fontFamily=Helvetica;fontSize=12;fontColor=default;fillColor=default;" vertex="1" parent="1">
          <mxGeometry x="-600" y="150" width="100" height="40" as="geometry" />
        </mxCell>
        <mxCell id="h5IUxsHttguIux_c7eIH-43" value="Id pedido" style="ellipse;whiteSpace=wrap;html=1;align=center;fontStyle=4;strokeColor=default;verticalAlign=middle;fontFamily=Helvetica;fontSize=12;fontColor=default;fillColor=default;" vertex="1" parent="1">
          <mxGeometry x="110" y="200" width="100" height="40" as="geometry" />
        </mxCell>
        <mxCell id="h5IUxsHttguIux_c7eIH-44" value="" style="endArrow=none;html=1;rounded=0;fontFamily=Helvetica;fontSize=12;fontColor=default;exitX=1;exitY=0.5;exitDx=0;exitDy=0;" edge="1" parent="1" source="h5IUxsHttguIux_c7eIH-2" target="h5IUxsHttguIux_c7eIH-43">
          <mxGeometry relative="1" as="geometry">
            <mxPoint y="490" as="sourcePoint" />
            <mxPoint x="160" y="490" as="targetPoint" />
          </mxGeometry>
        </mxCell>
        <mxCell id="h5IUxsHttguIux_c7eIH-45" value="" style="endArrow=none;html=1;rounded=0;fontFamily=Helvetica;fontSize=12;fontColor=default;exitX=0.75;exitY=0;exitDx=0;exitDy=0;entryX=0.38;entryY=1.025;entryDx=0;entryDy=0;entryPerimeter=0;" edge="1" parent="1" source="h5IUxsHttguIux_c7eIH-2" target="h5IUxsHttguIux_c7eIH-41">
          <mxGeometry relative="1" as="geometry">
            <mxPoint y="490" as="sourcePoint" />
            <mxPoint x="160" y="490" as="targetPoint" />
          </mxGeometry>
        </mxCell>
        <mxCell id="h5IUxsHttguIux_c7eIH-46" value="descrição" style="ellipse;whiteSpace=wrap;html=1;align=center;strokeColor=default;verticalAlign=middle;fontFamily=Helvetica;fontSize=12;fontColor=default;fillColor=default;" vertex="1" parent="1">
          <mxGeometry x="-80" y="120" width="100" height="40" as="geometry" />
        </mxCell>
        <mxCell id="h5IUxsHttguIux_c7eIH-48" value="" style="endArrow=none;html=1;rounded=0;fontFamily=Helvetica;fontSize=12;fontColor=default;entryX=0.5;entryY=1;entryDx=0;entryDy=0;exitX=0.5;exitY=0;exitDx=0;exitDy=0;" edge="1" parent="1" source="h5IUxsHttguIux_c7eIH-2" target="h5IUxsHttguIux_c7eIH-46">
          <mxGeometry relative="1" as="geometry">
            <mxPoint y="490" as="sourcePoint" />
            <mxPoint x="160" y="490" as="targetPoint" />
          </mxGeometry>
        </mxCell>
        <mxCell id="h5IUxsHttguIux_c7eIH-50" value="categor&lt;span style=&quot;color: rgba(0, 0, 0, 0); font-family: monospace; font-size: 0px; text-align: start; text-wrap-mode: nowrap;&quot;&gt;%3CmxGraphModel%3E%3Croot%3E%3CmxCell%20id%3D%220%22%2F%3E%3CmxCell%20id%3D%221%22%20parent%3D%220%22%2F%3E%3CmxCell%20id%3D%222%22%20value%3D%22status%22%20style%3D%22ellipse%3BwhiteSpace%3Dwrap%3Bhtml%3D1%3Balign%3Dcenter%3BstrokeColor%3Ddefault%3BverticalAlign%3Dmiddle%3BfontFamily%3DHelvetica%3BfontSize%3D12%3BfontColor%3Ddefault%3BfillColor%3Ddefault%3B%22%20vertex%3D%221%22%20parent%3D%221%22%3E%3CmxGeometry%20x%3D%2230%22%20y%3D%22130%22%20width%3D%22100%22%20height%3D%2240%22%20as%3D%22geometry%22%2F%3E%3C%2FmxCell%3E%3C%2Froot%3E%3C%2FmxGraphModel%3E&lt;/span&gt;ia" style="ellipse;whiteSpace=wrap;html=1;align=center;strokeColor=default;verticalAlign=middle;fontFamily=Helvetica;fontSize=12;fontColor=default;fillColor=default;" vertex="1" parent="1">
          <mxGeometry x="-230" y="490" width="100" height="40" as="geometry" />
        </mxCell>
        <mxCell id="h5IUxsHttguIux_c7eIH-51" value="descrição" style="ellipse;whiteSpace=wrap;html=1;align=center;strokeColor=default;verticalAlign=middle;fontFamily=Helvetica;fontSize=12;fontColor=default;fillColor=default;" vertex="1" parent="1">
          <mxGeometry x="-230" y="550" width="100" height="40" as="geometry" />
        </mxCell>
        <mxCell id="h5IUxsHttguIux_c7eIH-52" value="valor" style="ellipse;whiteSpace=wrap;html=1;align=center;dashed=1;strokeColor=default;verticalAlign=middle;fontFamily=Helvetica;fontSize=12;fontColor=default;fillColor=default;" vertex="1" parent="1">
          <mxGeometry x="-207.5" y="610" width="85" height="20" as="geometry" />
        </mxCell>
        <mxCell id="h5IUxsHttguIux_c7eIH-53" value="Id_produto" style="ellipse;whiteSpace=wrap;html=1;align=center;strokeColor=default;verticalAlign=middle;fontFamily=Helvetica;fontSize=12;fontColor=default;fillColor=default;" vertex="1" parent="1">
          <mxGeometry x="-190" y="440" width="100" height="40" as="geometry" />
        </mxCell>
        <mxCell id="h5IUxsHttguIux_c7eIH-54" value="" style="endArrow=none;html=1;rounded=0;fontFamily=Helvetica;fontSize=12;fontColor=default;exitX=1;exitY=0.5;exitDx=0;exitDy=0;entryX=0;entryY=0.25;entryDx=0;entryDy=0;" edge="1" parent="1" source="h5IUxsHttguIux_c7eIH-50" target="h5IUxsHttguIux_c7eIH-4">
          <mxGeometry relative="1" as="geometry">
            <mxPoint y="450" as="sourcePoint" />
            <mxPoint x="160" y="450" as="targetPoint" />
          </mxGeometry>
        </mxCell>
        <mxCell id="h5IUxsHttguIux_c7eIH-55" value="" style="endArrow=none;html=1;rounded=0;fontFamily=Helvetica;fontSize=12;fontColor=default;exitX=1;exitY=0.5;exitDx=0;exitDy=0;entryX=0;entryY=1;entryDx=0;entryDy=0;" edge="1" parent="1" source="h5IUxsHttguIux_c7eIH-51" target="h5IUxsHttguIux_c7eIH-4">
          <mxGeometry relative="1" as="geometry">
            <mxPoint y="450" as="sourcePoint" />
            <mxPoint x="160" y="450" as="targetPoint" />
          </mxGeometry>
        </mxCell>
        <mxCell id="h5IUxsHttguIux_c7eIH-56" value="" style="endArrow=none;html=1;rounded=0;fontFamily=Helvetica;fontSize=12;fontColor=default;exitX=1;exitY=0.5;exitDx=0;exitDy=0;entryX=0.25;entryY=1;entryDx=0;entryDy=0;" edge="1" parent="1" source="h5IUxsHttguIux_c7eIH-52" target="h5IUxsHttguIux_c7eIH-4">
          <mxGeometry relative="1" as="geometry">
            <mxPoint y="450" as="sourcePoint" />
            <mxPoint x="160" y="450" as="targetPoint" />
          </mxGeometry>
        </mxCell>
        <mxCell id="h5IUxsHttguIux_c7eIH-57" value="" style="endArrow=none;html=1;rounded=0;fontFamily=Helvetica;fontSize=12;fontColor=default;exitX=1;exitY=0.5;exitDx=0;exitDy=0;entryX=0;entryY=0;entryDx=0;entryDy=0;" edge="1" parent="1" source="h5IUxsHttguIux_c7eIH-53" target="h5IUxsHttguIux_c7eIH-4">
          <mxGeometry relative="1" as="geometry">
            <mxPoint y="490" as="sourcePoint" />
            <mxPoint x="160" y="490" as="targetPoint" />
          </mxGeometry>
        </mxCell>
        <mxCell id="h5IUxsHttguIux_c7eIH-58" value="Disponibiliza" style="shape=associativeEntity;whiteSpace=wrap;html=1;align=center;strokeColor=default;verticalAlign=middle;fontFamily=Helvetica;fontSize=12;fontColor=default;fillColor=default;" vertex="1" parent="1">
          <mxGeometry x="-68" y="720" width="140" height="60" as="geometry" />
        </mxCell>
        <mxCell id="h5IUxsHttguIux_c7eIH-64" value="" style="endArrow=none;html=1;rounded=0;fontFamily=Helvetica;fontSize=12;fontColor=default;entryX=0.5;entryY=0;entryDx=0;entryDy=0;exitX=0.5;exitY=1;exitDx=0;exitDy=0;" edge="1" parent="1" source="h5IUxsHttguIux_c7eIH-58" target="h5IUxsHttguIux_c7eIH-3">
          <mxGeometry relative="1" as="geometry">
            <mxPoint x="-20" y="780" as="sourcePoint" />
            <mxPoint x="140" y="780" as="targetPoint" />
          </mxGeometry>
        </mxCell>
        <mxCell id="h5IUxsHttguIux_c7eIH-65" value="N" style="resizable=0;html=1;whiteSpace=wrap;align=right;verticalAlign=bottom;strokeColor=default;fontFamily=Helvetica;fontSize=12;fontColor=default;fillColor=default;" connectable="0" vertex="1" parent="h5IUxsHttguIux_c7eIH-64">
          <mxGeometry x="1" relative="1" as="geometry" />
        </mxCell>
        <mxCell id="h5IUxsHttguIux_c7eIH-66" value="" style="endArrow=none;html=1;rounded=0;fontFamily=Helvetica;fontSize=12;fontColor=default;entryX=0.5;entryY=0;entryDx=0;entryDy=0;exitX=0.5;exitY=1;exitDx=0;exitDy=0;" edge="1" parent="1" source="h5IUxsHttguIux_c7eIH-4" target="h5IUxsHttguIux_c7eIH-58">
          <mxGeometry relative="1" as="geometry">
            <mxPoint x="-20" y="780" as="sourcePoint" />
            <mxPoint x="140" y="780" as="targetPoint" />
          </mxGeometry>
        </mxCell>
        <mxCell id="h5IUxsHttguIux_c7eIH-67" value="M" style="resizable=0;html=1;whiteSpace=wrap;align=left;verticalAlign=bottom;strokeColor=default;fontFamily=Helvetica;fontSize=12;fontColor=default;fillColor=default;" connectable="0" vertex="1" parent="h5IUxsHttguIux_c7eIH-66">
          <mxGeometry x="-1" relative="1" as="geometry">
            <mxPoint x="-22" y="20" as="offset" />
          </mxGeometry>
        </mxCell>
      </root>
    </mxGraphModel>
  </diagram>
</mxfile>
